<svg width="1887" height="421" viewBox="0 0 1887 421" fill="none" xmlns="http://www.w3.org/2000/svg">
    <path d="M175.774 1.82739C171.108 7.42739 165.241 13.4274 164.041 13.9607C163.374 14.2274 160.041 17.2941 156.841 20.7607L150.974 27.0274L155.241 31.8274L159.374 36.6274L159.108 77.5607L158.708 118.494L138.174 118.894C125.774 119.027 116.841 119.827 115.774 120.627C114.041 122.094 113.241 136.894 114.708 140.761C115.241 142.094 122.041 142.361 149.108 142.094C181.641 141.694 182.841 141.694 185.241 144.361C187.641 147.027 187.774 150.494 187.641 212.094C187.374 276.361 187.774 282.094 191.774 279.561C192.574 279.161 192.708 279.427 192.174 280.227C191.641 281.161 192.974 282.894 195.641 284.361C198.041 285.827 200.708 287.694 201.641 288.361C202.574 289.161 203.774 289.827 204.574 289.827C205.241 289.827 206.041 290.494 206.308 291.427C206.574 292.227 207.908 292.627 209.108 292.094C211.241 291.294 211.374 285.961 211.374 216.894L211.241 142.494L228.574 142.094C243.908 141.827 245.908 141.427 245.774 139.427C245.774 138.227 246.041 135.961 246.441 134.494C246.708 133.027 246.708 129.161 246.174 125.827L245.374 119.827L224.041 119.161L202.708 118.494L202.308 79.1607C202.041 50.0941 202.441 38.7607 203.641 35.8274C206.974 27.6941 207.108 24.4941 204.174 22.6274C201.508 21.1607 199.908 19.4274 189.374 7.69406C182.441 -0.172606 178.841 -1.77261 175.774 1.82739Z"
          fill="white"/>
    <path d="M1399.81 110.749C1389.95 112.467 1367.14 122.009 1367.14 124.49C1367.14 125.445 1364.04 129.261 1360.37 132.888C1356.5 136.514 1353.99 140.33 1354.57 141.285C1355.15 142.239 1353.99 143.766 1352.25 144.911C1347.23 147.583 1346.07 175.446 1350.51 182.317C1352.25 184.988 1353.41 187.279 1353.22 187.66C1352.83 188.042 1356.31 192.622 1360.95 198.157C1368.3 206.745 1371.39 208.653 1388.98 215.333C1399.81 219.531 1413.92 224.303 1420.3 226.211C1449.69 234.417 1459.16 244.723 1455.1 263.808C1451.43 280.984 1442.34 286.709 1417.79 287.472C1395.56 288.045 1385.31 280.984 1378.74 260.945C1377 255.601 1375.45 253.884 1373.13 254.456C1371.39 255.029 1364.43 256.937 1357.47 258.846C1350.51 260.754 1344.52 262.472 1344.13 262.853C1342.78 263.808 1352.25 282.51 1353.99 282.51C1354.76 282.51 1355.54 283.656 1355.54 284.991C1355.54 288.236 1365.98 299.305 1371.39 301.595C1373.9 302.549 1377.19 304.267 1378.74 305.221C1389.95 311.901 1399.62 314 1418.37 314C1445.24 313.809 1457.23 309.038 1477.53 289.763C1482.36 285.182 1487 268.579 1487 255.983C1487 244.151 1483.71 230.41 1481.39 231.746C1480.62 232.318 1479.85 231.746 1479.85 230.41C1479.85 225.638 1472.69 217.241 1462.83 210.943C1452.39 204.073 1410.44 188.233 1407.54 190.141C1406.58 190.714 1405.8 190.332 1405.8 189.187C1405.8 188.042 1401.55 185.752 1396.14 183.843C1390.92 181.935 1386.47 179.263 1386.47 177.927C1386.47 176.591 1385.12 175.064 1383.57 174.492C1379.12 172.774 1379.7 151.209 1384.15 145.865C1390.14 138.804 1394.98 137.468 1415.08 138.04L1434.42 138.422L1444.08 147.01C1449.49 151.781 1454.52 158.079 1455.68 161.324C1456.65 164.568 1458.58 166.858 1460.13 166.667C1466.7 165.713 1484.1 160.178 1485.65 158.652C1487.97 156.362 1486.03 148.155 1482.17 144.338C1480.62 142.811 1479.27 140.712 1479.27 139.567C1479.27 132.506 1454.91 115.711 1442.53 114.185C1439.83 113.803 1436.93 113.04 1435.77 112.276C1432.1 110.177 1408.7 109.223 1399.81 110.749Z"
          fill="white"/>
    <path d="M1685 211.5V307H1699.7H1714.4L1714.6 211.5L1715 116H1700.1H1685V211.5Z" fill="white"/>
    <path d="M1567.63 170.07C1556.85 172.349 1542.8 179.754 1536.26 186.59C1526.83 196.274 1523.36 200.451 1523.75 201.97C1523.94 202.92 1522.59 205.768 1520.67 208.616C1518.75 211.464 1517.01 214.882 1516.82 216.211C1516.44 217.54 1515.67 220.009 1514.9 221.718C1510.86 230.832 1513.74 265.58 1519.13 272.796C1521.25 275.454 1524.71 281.15 1527.02 285.517C1530.87 293.303 1547.23 306.025 1555.5 307.923C1557.43 308.303 1562.82 310.202 1567.63 311.911C1581.1 316.658 1617.66 312.67 1617.66 306.404C1617.66 305.645 1618.43 305.265 1619.39 306.025C1620.36 306.594 1622.28 306.025 1623.82 304.695C1625.17 303.366 1629.59 300.708 1633.44 298.619C1640.95 294.822 1650.38 283.429 1650.38 278.112C1650.38 276.403 1651.72 273.555 1653.46 271.846C1655.19 270.327 1655.96 267.669 1655.38 266.15C1654.8 264.631 1655.19 262.922 1656.34 262.162C1657.31 261.593 1657.69 259.504 1657.11 257.415C1656.34 255.327 1656.73 253.807 1657.88 253.807C1659.23 253.807 1660 248.871 1660 241.465C1660 234.63 1659.23 229.123 1658.08 229.123C1657.11 229.123 1656.73 227.984 1657.31 226.465C1658.85 222.287 1654.42 208.806 1651.15 207.477C1649.42 206.907 1648.45 205.198 1649.03 203.679C1650.38 200.641 1642.3 189.438 1634.6 183.552C1622.67 174.438 1607.85 169.501 1590.72 169.121C1581.68 168.741 1571.28 169.311 1567.63 170.07ZM1605.15 197.033C1621.13 205.008 1639.79 238.047 1631.13 243.364C1630.17 243.934 1629.21 247.541 1629.21 251.149C1629.21 257.605 1624.01 270.517 1619.01 276.973C1614.97 281.91 1598.61 287.606 1585.91 288.176C1576.67 288.556 1573.02 287.796 1567.82 284.568C1564.16 282.479 1560.51 280.96 1559.54 281.53C1558.77 282.1 1557.23 280.391 1556.08 277.732C1555.12 275.074 1553.58 272.796 1552.62 272.796C1547.42 272.796 1538.38 232.731 1542.61 228.364C1543.57 227.414 1543.76 225.515 1543.19 224.186C1542.61 222.667 1542.99 221.528 1544.15 221.528C1545.11 221.528 1546.65 219.439 1547.23 216.971C1549.73 207.287 1561.66 197.033 1575.32 192.856C1582.64 190.767 1596.11 192.476 1605.15 197.033Z"
          fill="white"/>
    <path d="M1792.47 170.736C1777.24 175.099 1757.2 190.654 1755.85 199.38C1755.66 200.898 1753.54 203.933 1751.23 206.209C1748.92 208.486 1747.57 211.521 1748.14 213.039C1748.72 214.556 1748.53 215.315 1747.57 214.746C1745.06 213.228 1742.36 235.992 1743.13 253.254C1743.33 258.945 1744.29 261.032 1745.83 260.083C1747.37 259.135 1747.57 260.083 1746.99 262.739C1746.22 265.015 1746.6 267.292 1747.57 267.861C1748.34 268.43 1748.53 270.327 1747.95 272.034C1746.99 274.31 1747.37 274.69 1749.3 273.552C1751.04 272.603 1751.42 272.793 1750.46 274.121C1748.72 276.966 1752.77 284.364 1755.27 283.036C1756.24 282.278 1756.82 282.467 1756.62 283.416C1756.24 284.364 1759.32 288.917 1763.37 293.849C1772.23 304.472 1789.77 312.249 1809.23 313.767C1822.34 314.905 1841.8 311.68 1841.8 308.266C1841.8 307.317 1842.76 307.128 1843.73 307.697C1844.88 308.266 1845.66 307.886 1845.66 306.938C1845.66 305.8 1847.97 304.851 1850.67 304.851C1853.75 304.851 1857.8 302.575 1861.46 298.591C1864.54 295.367 1869.55 289.865 1872.63 286.83C1875.52 283.605 1878.61 277.915 1879.38 273.931C1880.15 270.137 1881.5 266.912 1882.66 266.912C1883.62 266.912 1884 266.343 1883.43 265.395C1883.04 264.636 1883.81 258.945 1885.35 252.685C1888.24 239.975 1887.28 224.8 1882.85 218.16C1881.31 215.884 1880.54 213.039 1881.31 212.09C1882.66 209.814 1874.95 193.879 1873.21 195.586C1872.63 196.156 1870.71 193.879 1868.78 190.654C1867.05 187.24 1864.16 183.825 1862.42 183.067C1860.49 182.308 1857.6 180.6 1855.87 179.652C1841.99 171.685 1834.29 169.598 1817.71 169.029C1808.27 168.839 1796.71 169.598 1792.47 170.736ZM1833.32 196.156C1842.19 200.139 1847 204.692 1852.98 213.987C1856.64 220.057 1857.22 223.472 1857.22 241.683C1857.22 262.17 1857.02 262.739 1851.44 268.999C1848.35 272.603 1845.66 276.397 1845.66 277.345C1845.66 282.088 1835.63 285.692 1817.33 287.589C1801.14 289.296 1795.55 287.399 1784.57 276.587C1776.09 268.24 1774.74 265.964 1773.77 257.048C1770.31 228.783 1773 215.315 1784.37 205.261C1800.56 190.844 1815.59 187.999 1833.32 196.156Z"
          fill="white"/>
    <path d="M62.5744 161.294C55.3744 169.161 38.5744 186.361 25.241 199.694C11.9077 213.028 0.707696 225.161 0.174363 226.761C-0.892304 230.228 1.64103 233.161 45.5077 277.428C62.441 294.494 76.041 307.161 77.3744 307.161C80.1744 307.161 91.3744 296.094 91.3744 293.294C91.3744 289.961 87.1077 283.028 83.7744 280.894C81.9077 279.694 75.3744 273.694 69.1077 267.561C62.841 261.428 57.241 256.494 56.5744 256.494C55.9077 256.494 55.3744 255.694 55.3744 254.628C55.3744 252.628 33.5077 231.161 31.3744 231.161C30.7077 231.161 30.041 229.961 30.041 228.494C30.041 227.028 30.7077 225.828 31.641 225.828C33.7744 225.828 86.041 173.694 86.041 171.561C86.041 170.628 87.5077 168.494 89.3744 166.894C91.241 165.294 92.7077 162.894 92.7077 161.561C92.7077 158.228 81.7744 147.161 78.441 147.161C76.7077 147.161 70.9744 152.361 62.5744 161.294Z"
          fill="white"/>
    <path d="M272.174 151.961C269.241 154.761 267.508 157.561 267.908 158.761C268.441 159.961 268.174 160.228 267.108 159.694C266.041 159.028 265.908 159.961 266.574 162.628C267.241 165.161 274.308 173.294 287.774 186.628C298.974 197.694 308.708 207.561 309.374 208.361C310.174 209.161 314.441 213.428 319.108 217.828C323.774 222.228 327.374 226.494 327.108 227.161C326.841 227.828 315.374 239.961 301.641 254.094C268.041 288.494 267.374 289.294 267.374 291.828C267.374 294.761 279.774 307.161 282.708 307.161C285.641 307.161 359.241 234.228 360.174 230.361C360.574 228.761 360.041 225.694 358.974 223.694C357.374 220.628 340.041 203.294 321.641 186.094C320.308 184.894 311.108 175.561 301.241 165.428C288.308 152.361 282.441 147.161 280.174 147.161C278.441 147.161 274.974 149.294 272.174 151.961Z"
          fill="white"/>
    <path d="M156.708 166.761C151.374 168.627 151.374 168.494 151.374 258.227C151.374 342.761 151.374 344.761 154.041 348.094C155.508 349.961 156.708 352.494 156.708 353.694C156.708 354.894 157.908 357.694 159.241 360.094C160.708 362.361 163.774 369.027 166.174 374.761C168.574 380.494 171.108 385.561 171.908 386.094C172.708 386.627 172.841 387.161 172.308 387.161C171.641 387.161 172.441 388.894 173.908 390.894C175.374 393.027 177.508 397.294 178.574 400.627C179.641 403.827 181.241 406.627 182.041 406.894C182.708 407.161 183.374 408.627 183.374 409.961C183.374 413.294 186.974 420.494 188.574 420.494C189.241 420.494 190.841 415.827 192.041 410.094C193.374 404.494 195.508 397.027 196.841 393.561C198.308 390.094 199.374 385.961 199.374 384.227C199.374 382.494 200.574 378.894 202.041 376.094C203.508 373.427 204.708 369.827 204.708 368.227V365.161H231.641C263.508 365.161 264.441 364.627 249.374 354.494C244.308 351.161 239.508 348.227 238.841 348.094C238.174 347.961 236.174 346.627 234.308 345.161C232.574 343.694 230.708 342.494 230.174 342.494C229.641 342.494 227.508 341.161 225.374 339.427C211.508 328.894 206.974 325.694 200.841 322.627C197.108 320.627 194.041 318.627 194.041 317.961C194.041 317.427 191.108 315.294 187.374 313.294C183.774 311.294 180.441 309.161 179.908 308.361C179.508 307.694 176.841 305.561 173.908 303.694L168.708 300.494V235.161V169.961L164.708 167.827C160.574 165.694 159.908 165.561 156.708 166.761Z"
          fill="white"/>
    <path d="M474.962 126.675C461.861 129.533 457.622 131.247 457.622 133.724C457.622 134.676 457.044 135.057 456.081 134.486C455.31 134.105 452.613 134.676 450.301 136.01C445.099 138.677 424.87 157.919 424.87 160.205C424.87 160.967 423.521 163.063 421.787 164.587C420.053 166.301 418.512 168.778 418.319 170.302C418.127 171.636 416.585 174.874 414.851 177.541C413.117 180.208 411.383 184.781 410.998 187.829C410.613 190.877 409.842 193.925 409.071 194.497C406.567 196.211 404.833 230.503 406.952 230.503C408.301 230.503 408.686 233.17 408.108 237.171C407.53 240.791 407.915 243.839 408.879 243.839C409.649 243.839 410.42 246.316 410.613 249.364C411.191 265.176 433.54 293.753 452.998 303.469C489.604 321.758 537.77 315.662 563.394 289.562C577.651 275.083 580.541 264.795 570.523 264.795C567.826 264.795 563.394 262.7 560.504 260.032C553.761 253.936 550.871 253.936 547.403 260.413C543.743 267.272 533.532 276.797 525.054 281.179C519.852 283.846 514.458 284.608 500.972 284.418C482.476 284.227 472.843 283.465 474.191 282.132C474.577 281.751 473.421 280.417 471.494 279.274C444.714 263.271 438.163 251.459 437.585 219.073C437.2 195.64 440.475 184.781 451.265 173.731C455.888 169.159 459.549 164.587 459.549 163.634C459.549 159.252 479.779 152.584 494.421 152.203C502.513 152.013 510.027 152.394 511.375 153.156C512.531 153.918 514.265 154.109 515.229 153.537C517.541 152.013 530.064 161.538 542.394 174.303C548.174 180.399 551.835 184.781 550.679 184.019C549.33 183.257 548.174 183.638 548.174 184.59C548.174 187.448 550.871 187.257 558.385 184.209C561.853 182.685 567.826 180.971 571.871 180.208C576.11 179.446 579 177.732 579 176.208C579 171.636 565.321 152.013 561.66 151.06C559.734 150.489 557.807 148.584 557.229 146.679C554.724 137.153 518.889 123.627 497.311 124.008C490.953 124.198 480.742 125.341 474.962 126.675Z"
          fill="white"/>
    <path d="M866.191 159.339C866.191 175.533 865.612 189.441 864.84 190.203C864.067 190.965 861.942 190.393 860.011 188.869C857.114 186.583 856.921 186.583 858.273 189.06C859.045 190.584 857.114 189.06 854.024 185.63C847.071 177.819 839.538 175.724 819.645 175.724C806.512 175.724 802.456 176.486 793.572 180.867C787.778 183.916 782.37 188.107 781.211 190.393C780.245 192.679 777.734 194.965 775.803 195.537C773.872 195.918 772.52 197.442 772.906 198.966C773.292 200.3 771.554 203.348 769.043 205.825C766.726 208.111 765.18 210.969 765.76 211.921C766.339 212.874 765.18 217.065 762.863 221.257C759.966 227.162 759 232.497 759 244.309C759 253.072 759.773 259.359 760.738 258.788C761.704 258.026 762.09 259.359 761.511 261.455C760.931 263.551 761.511 266.599 762.863 268.123C764.022 269.647 764.601 271.743 763.828 272.886C763.249 273.839 763.442 274.791 764.601 274.791C765.76 274.791 766.146 276.125 765.567 277.649C764.987 279.173 766.532 282.412 769.429 284.888C772.133 287.365 774.451 290.985 774.451 292.509C774.451 294.224 776.769 297.081 779.859 298.796C782.756 300.701 788.357 304.13 792.413 306.798C796.276 309.465 802.07 311.56 805.16 311.751C808.25 311.941 810.375 312.513 809.988 313.275C809.602 313.847 815.01 314.228 822.156 313.847C829.495 313.466 836.835 313.085 838.573 313.085C840.311 312.894 844.367 310.608 847.65 307.941C850.934 305.273 853.638 303.559 853.638 304.321C853.638 304.892 855.569 304.13 857.887 302.606C863.488 298.605 864.646 298.796 866.191 303.178C866.964 305.845 869.861 306.988 877.78 307.75C894.196 309.465 895.742 308.512 894.776 298.034C894.39 293.081 893.038 287.365 892.072 285.269C890.913 282.983 890.334 251.739 890.72 205.634L891.299 130H878.745H866.191V159.339ZM841.47 201.252C846.878 203.92 852.865 208.111 854.603 210.778C856.535 213.445 858.659 215.351 859.432 214.779C861.363 213.636 864.067 222.781 863.488 228.115C863.294 230.973 863.488 231.354 864.84 229.258C865.998 227.543 866.578 232.687 866.578 243.928C866.385 254.406 865.612 260.693 864.453 260.121C863.488 259.359 863.101 260.312 863.874 262.027C865.612 266.599 852.092 286.031 845.912 287.556C837.414 289.842 804.194 288.699 806.512 286.413C807.091 285.841 803.615 281.65 798.98 276.887C787.778 265.456 784.301 250.786 787.971 232.497C792.22 210.397 805.16 199.538 829.495 196.871C830.654 196.871 835.869 198.776 841.47 201.252Z"
          fill="white"/>
    <path d="M926.528 137.073C922.833 138.009 917 147.189 917 152.248C917 154.121 918.75 158.055 920.889 160.678C930.806 172.669 952 166.486 952 151.498C952 139.696 940.917 133.326 926.528 137.073Z"
          fill="white"/>
    <path d="M652.449 175.016C637.434 177.882 616.451 188.583 618.761 192.213C619.146 193.168 617.414 194.697 614.911 195.843C612.216 197.181 610.099 199.283 610.099 200.811C610.099 202.149 608.751 204.442 607.211 205.779C605.671 207.117 604.324 210.174 604.324 212.658C604.324 214.951 602.783 218.39 601.051 220.301C594.506 226.607 596.431 277.241 602.976 273.229C604.131 272.464 604.516 273.229 603.746 275.14C601.821 279.916 613.756 295.776 622.611 300.361C626.846 302.463 630.889 304.947 631.466 305.712C632.044 306.667 633.199 307.24 633.969 307.24C634.546 307.049 637.819 308.387 641.091 310.106C644.364 311.635 648.214 312.59 649.754 312.017C651.294 311.444 652.064 311.826 651.487 312.781C650.717 313.928 656.492 314.31 666.309 313.737C690.564 312.59 694.992 311.635 704.617 306.285C712.895 301.699 726.562 288.897 726.947 285.458C727.14 284.502 728.872 282.591 730.797 281.063C732.722 279.725 733.492 278.388 732.337 278.388C731.375 278.388 731.567 277.624 732.915 276.668C734.262 275.904 735.61 273.038 735.995 270.554C736.187 267.879 736.957 264.821 737.727 263.675C738.497 262.338 738.69 259.089 737.92 256.414C737.15 253.548 737.535 251.637 738.882 251.637C740.037 251.637 741 248.389 741 243.994C741 239.791 740.23 236.351 739.075 236.351C738.112 236.351 737.727 233.867 738.497 230.237C739.267 226.033 739.075 224.696 737.535 225.651C735.995 226.607 735.225 225.078 735.225 221.256C735.225 218.199 734.455 214.951 733.3 214.378C732.337 213.805 731.375 211.512 731.375 209.41C731.375 207.499 729.642 204.251 727.525 202.531C725.407 200.62 723.675 198.136 723.675 196.799C723.675 193.742 709.237 183.997 697.302 178.838C686.907 174.443 665.924 172.723 652.449 175.016ZM686.137 201.576C703.847 210.174 710.2 221.448 710.777 243.803C710.97 251.255 710.585 257.37 709.815 257.37C708.852 257.37 708.275 259.471 708.275 261.955C708.275 264.439 706.927 267.497 705.387 268.834C703.847 270.172 702.5 272.273 702.5 273.42C702.307 277.241 695.185 284.12 688.254 286.986C679.592 290.617 656.299 290.617 647.636 287.177C644.171 285.649 639.744 282.018 637.819 278.961C635.894 276.095 633.006 272.082 631.466 270.172C627.424 265.395 627.039 262.72 626.846 243.039C626.654 230.237 627.424 224.314 629.926 219.919C634.161 212.085 647.829 200.429 655.337 198.327C662.844 196.226 678.822 197.945 686.137 201.576Z"
          fill="white"/>
    <path d="M1035.13 174.918C1030.3 175.683 1026.05 177.405 1025.67 178.552C1025.28 179.891 1023.93 180.848 1022.58 180.848C1021.42 180.848 1017.56 183.334 1014.08 186.586C1010.6 189.646 1007.13 192.324 1006.55 192.324C1005.97 192.324 1005.97 189.264 1006.55 185.63L1007.71 178.935H992.257H977V243.967C977 288.534 977.579 309 979.124 309C980.09 309 980.669 308.426 980.283 307.47C979.704 306.705 985.304 306.322 992.45 306.705L1005.78 307.47L1005.58 264.625C1005.58 238.994 1006.36 219.867 1007.71 216.807C1008.67 213.938 1013.31 208.965 1017.75 205.713C1024.7 200.931 1027.6 199.975 1037.26 199.975C1050 199.975 1052.71 201.123 1061.78 209.347L1068.16 215.277L1067.96 240.142C1067.77 253.914 1068.35 266.155 1069.12 267.494C1069.89 268.833 1070.47 278.014 1070.67 287.96V306.131H1083.22H1095.77L1095.97 261.182C1096.16 212.981 1095.58 204.948 1092.49 206.861C1091.33 207.626 1090.95 206.669 1091.72 204.183C1093.65 198.636 1082.25 184.673 1071.44 179.318C1061.4 174.344 1047.68 172.814 1035.13 174.918Z"
          fill="white"/>
    <path d="M1166.53 175.559C1156.1 177.849 1138.51 188.534 1135.61 194.067C1134.45 196.548 1132.32 199.6 1131.16 200.745C1130 201.89 1129.04 204.37 1129.04 206.279C1129.04 208.187 1127.88 210.285 1126.33 210.858C1121.69 212.575 1119.37 226.885 1120.15 246.92C1121.11 271.534 1120.92 270.007 1124.4 273.442C1125.95 275.159 1127.68 278.021 1128.07 280.12C1129.04 285.081 1132.9 292.331 1134.06 291.186C1134.64 290.614 1137.16 292.141 1139.67 294.43C1147.59 301.681 1150.11 303.207 1153.2 303.207C1154.74 303.207 1156.1 303.97 1156.1 304.924C1156.1 310.267 1186.25 312.938 1198.81 308.55C1206.93 305.878 1213.89 301.108 1214.08 298.246C1214.08 295.766 1219.49 293.095 1221.81 294.621C1222.59 295.003 1223.75 297.292 1224.33 299.391C1224.91 301.49 1224.52 302.826 1223.55 302.062C1222.59 301.49 1221.81 306.069 1221.81 312.366C1221.81 322.288 1221.04 324.768 1215.63 331.446C1207.12 341.94 1196.69 345.947 1180.06 344.803C1168.08 344.039 1166.73 343.467 1159.96 336.407C1156.1 332.209 1152.42 327.821 1152.04 326.485C1151.46 324.959 1149.14 324.959 1143.53 326.295C1139.28 327.439 1133.48 328.775 1130.58 329.347L1125.56 330.301L1128.26 338.315C1131.55 347.092 1143.34 358.922 1155.13 364.455C1164.41 369.035 1198.62 372.088 1198.62 368.271C1198.62 367.127 1201.52 366.173 1205 366.173C1208.28 366.173 1213.31 364.837 1216.02 363.311C1218.72 361.784 1223.17 359.685 1225.87 358.54C1228.77 357.396 1231.48 354.724 1232.06 352.435C1232.64 350.336 1233.99 349.191 1234.96 349.763C1237.08 351.099 1244.04 341.75 1242.3 340.032C1241.72 339.269 1243.08 335.835 1245.59 332.019C1249.84 325.34 1249.84 323.814 1250.42 252.072L1251 179.184H1237.47C1229.93 179.184 1223.94 179.757 1223.94 180.52C1224.71 185.099 1223.55 192.541 1222.01 192.541C1221.23 192.541 1217.18 189.488 1213.31 185.862C1201.91 175.368 1184.9 171.552 1166.53 175.559ZM1190.5 198.074C1192.24 199.028 1197.46 201.318 1202.1 203.226C1206.74 205.134 1211.76 208.377 1213.31 210.476C1214.86 212.575 1216.02 213.529 1216.02 212.575C1216.21 211.43 1217.37 212.766 1218.91 215.437C1220.46 218.108 1221.62 225.168 1221.81 231.274C1221.81 237.761 1222.59 241.959 1223.55 241.196C1224.71 240.623 1224.71 242.531 1223.55 246.347C1222.59 249.782 1221.81 255.697 1221.81 259.322C1221.81 266.573 1213.7 280.311 1209.44 280.311C1208.09 280.311 1205.38 282.219 1203.26 284.318C1199.97 287.943 1198.04 288.324 1186.06 287.561C1175.43 286.798 1170.79 285.462 1164.99 281.455C1152.62 273.251 1149.91 266.954 1149.14 245.584C1148.37 224.977 1149.53 220.589 1158.42 209.713C1166.15 200.173 1182.77 194.067 1190.5 198.074Z"
          fill="white"/>
    <path d="M918.586 241.111C918.393 275.32 918.2 304.369 918.007 305.516C917.813 307.236 921.872 308 931.73 308C939.462 308 945.84 307.618 946.034 307.044C946.227 306.471 946.42 277.422 946.613 242.449L947 179H932.89H918.78L918.586 241.111Z"
          fill="white"/>
</svg>
